<svg xmlns="http://www.w3.org/2000/svg" xmlns:xlink="http://www.w3.org/1999/xlink" width="386" zoomAndPan="magnify" viewBox="0 0 289.5 101.999999" height="136" preserveAspectRatio="xMidYMid meet" version="1.0"><defs><g/><clipPath id="f24842a48f"><path d="M 121 40 L 289 40 L 289 101 L 121 101 Z M 121 40 " clip-rule="nonzero"/></clipPath></defs><path fill="#ffde59" d="M 71.746094 4.027344 C 52.28125 4.015625 31.972656 8.402344 11.476562 14.09375 C 8.871094 14.617188 6.332031 16.324219 4.988281 18.429688 C 3.753906 20.417969 3.304688 22.410156 2.921875 24.5 C 0.929688 35.667969 1.171875 46.628906 1.585938 58.777344 C 1.675781 61.558594 2.089844 64.851562 3.386719 66.855469 C 4.742188 68.882812 7.066406 70.167969 9.839844 70.589844 C 13.382812 71.109375 16.9375 71.550781 20.503906 71.914062 L 19.71875 93.84375 C 19.597656 95.585938 20.449219 97.035156 21.507812 97.871094 C 22.453125 98.59375 23.507812 98.914062 24.59375 98.992188 C 26.757812 99.15625 29.300781 98.230469 30.566406 95.824219 C 36.09375 85.175781 39.566406 80.472656 46.480469 73.398438 C 64.519531 73.839844 80.265625 72.835938 98.089844 71.519531 C 104.394531 71.355469 108.71875 66.199219 109.863281 62.082031 C 113.28125 51.410156 113.816406 38.242188 114.175781 24.925781 C 114.332031 19.648438 112.503906 14.46875 109.265625 11.730469 C 106.183594 9.230469 102.457031 8.324219 99.039062 7.398438 C 89.546875 5.246094 80.050781 4.09375 71.746094 4.027344 Z M 97.675781 12.371094 C 101.097656 13.300781 104.113281 14.199219 106.015625 15.742188 C 109.191406 19.117188 109.085938 21.367188 109.039062 25.007812 C 108.683594 37.921875 108.0625 50.457031 105.148438 59.953125 C 103.894531 63.496094 101.707031 66.015625 97.574219 66.398438 C 79.414062 67.742188 63.652344 68.78125 45.398438 68.261719 C 44.648438 68.238281 44.007812 68.492188 43.476562 69.023438 C 35.804688 76.773438 31.882812 82.160156 26.035156 93.417969 C 25.902344 93.675781 25.605469 93.832031 25.242188 93.859375 C 25 93.847656 24.898438 93.660156 24.886719 93.488281 L 25.675781 69.707031 C 25.722656 68.421875 24.664062 67.199219 23.390625 67.058594 C 19.125 66.652344 14.875 66.128906 10.640625 65.496094 C 8.8125 65.214844 8.136719 64.714844 7.632812 63.96875 C 6.761719 61.886719 6.78125 60.601562 6.714844 58.601562 C 6.308594 46.5625 6.105469 36.042969 7.953125 25.574219 C 8.125 24.023438 8.703125 22.441406 9.316406 21.117188 C 10.335938 19.523438 11.894531 19.289062 13.460938 18.855469 C 33.507812 13.316406 53.121094 9.175781 71.585938 9.164062 C 80.636719 9.488281 90.140625 10.398438 97.675781 12.371094 Z M 28.433594 32.769531 C 25.671875 36.078125 25.949219 40.574219 28.082031 43.585938 C 29.195312 45.160156 30.933594 46.429688 33.050781 46.71875 C 35.800781 46.945312 37.542969 45.828125 39.425781 44.546875 C 42.835938 41.582031 43.179688 36.410156 40.589844 32.671875 C 39.269531 30.769531 37.15625 29.628906 35 29.546875 C 32.046875 29.578125 30.039062 30.894531 28.433594 32.765625 Z M 58.308594 30.066406 C 55.558594 30.15625 53.332031 32.0625 51.976562 34.117188 C 50.421875 36.46875 49.511719 39.414062 50.769531 42.300781 C 53.1875 47.855469 61.546875 47.789062 64.882812 42.144531 C 66.417969 39.542969 66.023438 36.582031 64.882812 34.4375 C 63.742188 32.296875 62.019531 30.546875 59.511719 30.148438 C 59.113281 30.082031 58.710938 30.054688 58.308594 30.066406 Z M 82.5625 30.589844 C 81.707031 30.566406 80.824219 30.648438 79.996094 30.867188 C 76.691406 31.75 73.875 35.164062 74.300781 39.535156 C 74.519531 41.730469 75.53125 43.875 77.351562 45.351562 C 79.171875 46.828125 81.820312 47.488281 84.609375 46.917969 C 87.8125 46.261719 89.800781 43.675781 90.460938 41.179688 C 91.125 38.683594 90.957031 36.140625 89.417969 34.078125 C 88.605469 32.996094 87.597656 32.152344 86.394531 31.539062 C 85.191406 30.925781 83.914062 30.609375 82.566406 30.589844 Z M 34.773438 34.679688 C 35.390625 34.683594 35.878906 34.882812 36.378906 35.601562 C 37.5 37.222656 37.1875 39.675781 36.058594 40.660156 C 34.929688 41.640625 34.226562 41.726562 33.734375 41.660156 C 33.242188 41.59375 32.738281 41.253906 32.289062 40.617188 C 31.433594 39.40625 31.183594 37.449219 32.308594 36.054688 C 32.90625 35.257812 34.007812 34.761719 34.777344 34.679688 Z M 58.667969 35.242188 C 58.765625 35.257812 59.839844 35.878906 60.351562 36.847656 C 60.867188 37.8125 60.960938 38.710938 60.472656 39.535156 C 59.019531 41.996094 55.929688 41.328125 55.460938 40.257812 C 55.285156 39.847656 55.417969 38.207031 56.265625 36.929688 C 57.109375 35.644531 58.171875 35.164062 58.667969 35.238281 Z M 85.289062 37.128906 C 85.445312 37.335938 85.824219 38.742188 85.53125 39.855469 C 85.234375 40.972656 84.75 41.660156 83.566406 41.902344 C 82.046875 42.214844 81.195312 41.902344 80.558594 41.378906 C 79.917969 40.863281 79.488281 39.988281 79.394531 39.050781 C 79.167969 36.734375 80 36.195312 81.320312 35.84375 C 82.855469 35.464844 84.59375 36.125 85.289062 37.128906 Z M 85.289062 37.128906 " fill-opacity="1" fill-rule="nonzero"/><g clip-path="url(#f24842a48f)"><path stroke-linecap="butt" transform="matrix(0.384588, 0, 0, 0.384588, 125.081485, 46.230964)" fill="none" stroke-linejoin="miter" d="M 66.082762 13.730955 C 73.385634 13.730955 79.977517 15.031049 85.868568 17.631237 C 91.779932 20.200954 96.624814 23.786369 100.403212 28.357012 C 104.191767 32.937812 106.649758 38.178816 107.78734 44.090181 C 108.061578 45.146507 108.203776 45.97938 108.203776 46.598956 C 108.203776 47.401358 108.041264 47.929521 107.726398 48.183446 C 107.421688 48.43737 106.873211 48.610039 106.080966 48.701452 L 82.96367 50.143744 C 82.090169 50.143744 81.521378 50.001546 81.257297 49.696836 C 81.003372 49.392127 80.729133 48.711609 80.454895 47.634968 C 79.682964 43.41982 78.230515 40.1188 76.107706 37.711595 C 73.995053 35.284075 70.927643 34.065237 66.885164 34.065237 C 61.684788 34.065237 57.672779 36.350559 54.859294 40.931359 C 52.045809 45.512159 50.644146 52.947071 50.644146 63.236096 C 50.644146 73.870459 51.934083 81.437413 54.5038 85.9268 C 57.103988 90.416187 61.176938 92.66088 66.722652 92.66088 C 71.405022 92.66088 75.396717 91.48267 78.677423 89.116093 C 81.9886 86.729201 84.741142 82.767977 86.935051 77.222264 C 87.188976 76.430019 87.940592 76.033897 89.189901 76.033897 C 89.789164 76.033897 90.276699 76.074525 90.64235 76.155781 L 107.137293 79.477115 C 108.447544 79.913865 109.107748 80.919406 109.107748 82.514053 C 109.107748 84.9822 107.594357 88.791069 104.567576 93.950817 C 101.530637 99.090251 96.787326 103.772621 90.317327 108.008084 C 83.847328 112.213075 75.681112 114.325728 65.81868 114.325728 C 56.494569 114.325728 48.308039 112.101348 41.259092 107.652589 C 34.210145 103.20383 28.776158 97.089325 24.946975 89.309075 C 21.127949 81.508511 19.218436 72.631307 19.218436 62.687619 C 19.218436 52.845501 21.127949 44.232379 24.946975 36.838094 C 28.776158 29.443809 34.230459 23.755898 41.330191 19.754046 C 48.419766 15.73188 56.667237 13.730955 66.082762 13.730955 Z M 151.482687 73.779046 C 150.883425 73.779046 150.375575 73.982186 149.969296 74.388465 C 149.583331 74.774431 149.390348 75.231495 149.390348 75.769815 L 149.390348 109.16598 C 149.390348 110.577801 149.034854 111.583342 148.323865 112.16229 C 147.612876 112.720924 146.515921 112.995163 145.033002 112.995163 L 122.992346 112.995163 C 121.651624 112.995163 120.717181 112.741238 120.189018 112.223232 C 119.671012 111.684912 119.40693 110.852039 119.40693 109.714457 L 119.40693 18.078144 C 119.40693 17.11323 119.630384 16.37177 120.056977 15.853764 C 120.503884 15.315444 121.133617 15.051362 121.925862 15.051362 L 147.003457 15.051362 C 147.714446 15.051362 148.283237 15.29513 148.70983 15.792822 C 149.156737 16.260044 149.390348 16.940562 149.390348 17.824219 L 149.390348 48.43737 C 149.390348 50.204685 150.182593 51.088343 151.767082 51.088343 L 173.949936 51.088343 C 175.514112 51.088343 176.2962 50.204685 176.2962 48.43737 L 176.2962 17.824219 C 176.2962 16.940562 176.509496 16.260044 176.946247 15.792822 C 177.393154 15.29513 177.972102 15.051362 178.683091 15.051362 L 203.760685 15.051362 C 204.55293 15.051362 205.172506 15.315444 205.5991 15.853764 C 206.046007 16.37177 206.279618 17.11323 206.279618 18.078144 L 206.279618 109.714457 C 206.279618 110.852039 206.005379 111.684912 205.467059 112.223232 C 204.949053 112.741238 204.034924 112.995163 202.724673 112.995163 L 180.684017 112.995163 C 179.180783 112.995163 178.073672 112.720924 177.362683 112.16229 C 176.651694 111.583342 176.2962 110.577801 176.2962 109.16598 L 176.2962 75.769815 C 176.2962 75.231495 176.103217 74.774431 175.717252 74.388465 C 175.331286 73.982186 174.823437 73.779046 174.203861 73.779046 Z M 218.813336 112.995163 C 218.102347 112.995163 217.523399 112.761552 217.076492 112.294331 C 216.639742 111.796639 216.426445 111.105964 216.426445 110.232463 C 216.426445 109.60273 216.568643 108.891741 216.853038 108.099497 L 248.786597 18.078144 C 249.223348 16.940562 249.700726 16.158474 250.239046 15.721723 C 250.777366 15.274816 251.610239 15.051362 252.757978 15.051362 L 278.759858 15.051362 C 279.816185 15.051362 280.760784 15.386543 281.603814 16.046747 C 282.436687 16.696794 283.076577 17.539824 283.50317 18.59615 L 315.182804 108.515933 C 315.355473 109.226922 315.446886 109.755085 315.446886 110.100422 C 315.446886 110.892667 315.274217 111.583342 314.92888 112.16229 C 314.583542 112.720924 314.055379 112.995163 313.34439 112.995163 L 287.464394 112.995163 C 285.96116 112.995163 284.996247 112.243546 284.569653 110.740312 L 279.409905 95.565778 C 279.155981 94.956359 278.902056 94.550079 278.668445 94.336783 C 278.455149 94.103172 278.048869 93.981288 277.43945 93.981288 L 249.436644 93.981288 C 248.380318 93.981288 247.730271 94.468823 247.466189 95.433737 L 242.052517 111.034865 C 241.514196 112.345116 240.468027 112.995163 238.893694 112.995163 Z M 270.83741 71.554667 C 271.802324 71.554667 272.289859 71.107759 272.289859 70.224102 C 272.289859 70.06159 272.198446 69.614683 272.025778 68.903694 L 264.10333 46.345031 C 263.930661 45.898124 263.656422 45.664513 263.290771 45.664513 C 262.945434 45.664513 262.691509 45.898124 262.51884 46.345031 L 254.464352 68.78181 C 254.291683 69.127147 254.20027 69.563898 254.20027 70.102218 C 254.20027 71.067131 254.728433 71.554667 255.78476 71.554667 Z M 322.333321 18.078144 C 322.333321 17.194486 322.60756 16.47334 323.166194 15.914706 C 323.745142 15.335758 324.567858 15.051362 325.614027 15.051362 L 404.55411 15.051362 C 405.620593 15.051362 406.443309 15.335758 407.001943 15.914706 C 407.580891 16.47334 407.875444 17.194486 407.875444 18.078144 L 407.875444 33.770685 C 407.875444 35.446587 406.900373 36.289617 404.970546 36.289617 L 381.599325 36.289617 C 380.553156 36.289617 380.024993 36.726367 380.024993 37.610025 L 380.024993 110.100422 C 380.024993 111.065336 379.801539 111.796639 379.344475 112.294331 C 378.917881 112.761552 378.308462 112.995163 377.506061 112.995163 L 352.428466 112.995163 C 350.843977 112.995163 350.051732 112.121662 350.051732 110.354347 L 350.051732 38.158502 C 350.051732 36.909193 349.564196 36.289617 348.599283 36.289617 L 325.360103 36.289617 C 323.338863 36.289617 322.333321 35.446587 322.333321 33.770685 Z M 322.333321 18.078144 " stroke="#ff3131" stroke-width="4.9509" stroke-opacity="1" stroke-miterlimit="4"/></g><g fill="#000000" fill-opacity="1"><g transform="translate(145.430236, 47.094284)"><g><path d="M 18.921875 -36.96875 C 21.640625 -36.96875 24.097656 -36.484375 26.296875 -35.515625 C 28.492188 -34.546875 30.296875 -33.207031 31.703125 -31.5 C 33.109375 -29.800781 34.023438 -27.851562 34.453125 -25.65625 C 34.554688 -25.257812 34.609375 -24.945312 34.609375 -24.71875 C 34.609375 -24.425781 34.550781 -24.226562 34.4375 -24.125 C 34.320312 -24.03125 34.113281 -23.96875 33.8125 -23.9375 L 25.21875 -23.390625 C 24.882812 -23.390625 24.671875 -23.445312 24.578125 -23.5625 C 24.484375 -23.6875 24.382812 -23.941406 24.28125 -24.328125 C 23.988281 -25.898438 23.445312 -27.132812 22.65625 -28.03125 C 21.875 -28.9375 20.726562 -29.390625 19.21875 -29.390625 C 17.28125 -29.390625 15.785156 -28.535156 14.734375 -26.828125 C 13.691406 -25.128906 13.171875 -22.363281 13.171875 -18.53125 C 13.171875 -14.5625 13.65625 -11.738281 14.625 -10.0625 C 15.59375 -8.394531 17.109375 -7.5625 19.171875 -7.5625 C 20.910156 -7.5625 22.394531 -8.003906 23.625 -8.890625 C 24.851562 -9.773438 25.875 -11.253906 26.6875 -13.328125 C 26.789062 -13.617188 27.070312 -13.765625 27.53125 -13.765625 C 27.757812 -13.765625 27.9375 -13.75 28.0625 -13.71875 L 34.21875 -12.484375 C 34.707031 -12.316406 34.953125 -11.941406 34.953125 -11.359375 C 34.953125 -10.441406 34.382812 -9.023438 33.25 -7.109375 C 32.125 -5.191406 30.351562 -3.445312 27.9375 -1.875 C 25.53125 -0.300781 22.492188 0.484375 18.828125 0.484375 C 15.347656 0.484375 12.296875 -0.335938 9.671875 -1.984375 C 7.054688 -3.640625 5.035156 -5.914062 3.609375 -8.8125 C 2.179688 -11.71875 1.46875 -15.023438 1.46875 -18.734375 C 1.46875 -22.398438 2.179688 -25.609375 3.609375 -28.359375 C 5.035156 -31.117188 7.066406 -33.242188 9.703125 -34.734375 C 12.347656 -36.222656 15.421875 -36.96875 18.921875 -36.96875 Z M 18.921875 -36.96875 "/></g></g></g><g fill="#000000" fill-opacity="1"><g transform="translate(181.658992, 47.094284)"><g><path d="M 14.5 -14.59375 C 14.269531 -14.59375 14.082031 -14.519531 13.9375 -14.375 C 13.789062 -14.226562 13.71875 -14.054688 13.71875 -13.859375 L 13.71875 -1.421875 C 13.71875 -0.898438 13.582031 -0.53125 13.3125 -0.3125 C 13.050781 -0.101562 12.644531 0 12.09375 0 L 3.890625 0 C 3.390625 0 3.039062 -0.0976562 2.84375 -0.296875 C 2.65625 -0.492188 2.5625 -0.804688 2.5625 -1.234375 L 2.5625 -35.34375 C 2.5625 -35.707031 2.640625 -35.984375 2.796875 -36.171875 C 2.960938 -36.367188 3.191406 -36.46875 3.484375 -36.46875 L 12.828125 -36.46875 C 13.085938 -36.46875 13.300781 -36.378906 13.46875 -36.203125 C 13.632812 -36.023438 13.71875 -35.769531 13.71875 -35.4375 L 13.71875 -24.03125 C 13.71875 -23.375 14.007812 -23.046875 14.59375 -23.046875 L 22.859375 -23.046875 C 23.453125 -23.046875 23.75 -23.375 23.75 -24.03125 L 23.75 -35.4375 C 23.75 -35.769531 23.828125 -36.023438 23.984375 -36.203125 C 24.148438 -36.378906 24.363281 -36.46875 24.625 -36.46875 L 33.96875 -36.46875 C 34.257812 -36.46875 34.488281 -36.367188 34.65625 -36.171875 C 34.820312 -35.984375 34.90625 -35.707031 34.90625 -35.34375 L 34.90625 -1.234375 C 34.90625 -0.804688 34.804688 -0.492188 34.609375 -0.296875 C 34.410156 -0.0976562 34.066406 0 33.578125 0 L 25.359375 0 C 24.804688 0 24.398438 -0.101562 24.140625 -0.3125 C 23.878906 -0.53125 23.75 -0.898438 23.75 -1.421875 L 23.75 -13.859375 C 23.75 -14.054688 23.671875 -14.226562 23.515625 -14.375 C 23.367188 -14.519531 23.179688 -14.59375 22.953125 -14.59375 Z M 14.5 -14.59375 "/></g></g></g><g fill="#000000" fill-opacity="1"><g transform="translate(219.116672, 47.094284)"><g><path d="M 12.828125 -36.46875 C 13.421875 -36.46875 13.71875 -36.125 13.71875 -35.4375 L 13.71875 -1.421875 C 13.71875 -0.898438 13.582031 -0.53125 13.3125 -0.3125 C 13.050781 -0.101562 12.644531 0 12.09375 0 L 3.890625 0 C 3.390625 0 3.039062 -0.0976562 2.84375 -0.296875 C 2.65625 -0.492188 2.5625 -0.804688 2.5625 -1.234375 L 2.5625 -35.34375 C 2.5625 -35.707031 2.640625 -35.984375 2.796875 -36.171875 C 2.960938 -36.367188 3.191406 -36.46875 3.484375 -36.46875 Z M 12.828125 -36.46875 "/></g></g></g><g fill="#000000" fill-opacity="1"><g transform="translate(235.387662, 47.094284)"><g><path d="M 1.375 -35.34375 C 1.375 -35.664062 1.476562 -35.929688 1.6875 -36.140625 C 1.90625 -36.359375 2.210938 -36.46875 2.609375 -36.46875 L 32 -36.46875 C 32.394531 -36.46875 32.695312 -36.359375 32.90625 -36.140625 C 33.125 -35.929688 33.234375 -35.664062 33.234375 -35.34375 L 33.234375 -29.5 C 33.234375 -28.875 32.867188 -28.5625 32.140625 -28.5625 L 23.453125 -28.5625 C 23.054688 -28.5625 22.859375 -28.394531 22.859375 -28.0625 L 22.859375 -1.078125 C 22.859375 -0.722656 22.773438 -0.453125 22.609375 -0.265625 C 22.441406 -0.0859375 22.210938 0 21.921875 0 L 12.578125 0 C 11.992188 0 11.703125 -0.328125 11.703125 -0.984375 L 11.703125 -27.875 C 11.703125 -28.332031 11.519531 -28.5625 11.15625 -28.5625 L 2.5 -28.5625 C 1.75 -28.5625 1.375 -28.875 1.375 -29.5 Z M 1.375 -35.34375 "/></g></g></g></svg>